<?xml version="1.0" encoding="UTF-8"?>
<!DOCTYPE svg PUBLIC "-//W3C//DTD SVG 1.1//EN" "http://www.w3.org/Graphics/SVG/1.1/DTD/svg11.dtd">
<!-- Creator: CorelDRAW 2021 (64-Bit) -->
<svg xmlns="http://www.w3.org/2000/svg" xml:space="preserve" width="8.75899in" height="2.66352in" version="1.1" style="shape-rendering:geometricPrecision; text-rendering:geometricPrecision; image-rendering:optimizeQuality; fill-rule:evenodd; clip-rule:evenodd"
viewBox="0 0 8758.57 2663.39"
 xmlns:xlink="http://www.w3.org/1999/xlink"
 xmlns:xodm="http://www.corel.com/coreldraw/odm/2003">
 <defs>
  <style type="text/css">
   <![CDATA[
    .fil0 {fill:black}
    .fil2 {fill:#45B930}
    .fil1 {fill:black;fill-rule:nonzero}
   ]]>
  </style>
 </defs>
 <g id="Layer_x0020_1">
  <metadata id="CorelCorpID_0Corel-Layer"/>
  <g id="_1794660544640">
   <g>
    <path class="fil0" d="M783.41 1548.61c54.57,94.45 107.18,185.2 161.1,275.23l162.57 281.27c18.9,23.92 42.41,67.45 57,92.74l167.43 286.55c111.49,192.84 370.61,242.2 537.16,87.07 62.24,-57.98 179.84,-276.33 230.39,-363.2 48.75,-83.78 96.35,-164.98 143.94,-245.9l144.89 -250.37c-23.68,14.09 -39.43,33.95 -69.45,52.42 -96.34,59.31 -212.25,65.66 -311.45,21.3 -167.4,-74.87 -751.83,-1160.11 -844.27,-1324.09 -267.38,-423.57 -518.49,-654.41 -1162.72,-254.53 259.98,447.89 524.31,893.02 783.4,1341.51z"/>
    <path class="fil0" d="M2339.38 481.48c252.03,0 456.34,204.31 456.34,456.34 0,205.76 -227.76,483.54 -333.61,645.76 16.26,-56.57 9.46,-129.08 -1.89,-205.64 -38.49,10.55 -79,16.2 -120.84,16.2 -252.02,0 -456.33,-204.31 -456.33,-456.33 0,-252.03 204.31,-456.34 456.33,-456.34z"/>
   </g>
   <path class="fil1" d="M4041.13 1629.12c0,-353.37 -261.43,-528.62 -663.65,-528.62 -229.84,0 -324.64,57.45 -488.41,100.55l40.23 459.67c241.33,-34.48 241.33,-468.3 474.03,-468.3 77.58,0 158.02,45.98 158.02,407.97l0 17.24c-143.65,149.39 -815.93,163.75 -815.93,629.17 0,249.96 192.49,416.58 465.42,416.58 186.75,0 290.18,-74.69 350.51,-163.75l0 14.36c0,71.83 45.98,120.67 117.79,120.67l451.06 0 0 -31.6c-43.09,0 -89.06,-60.34 -89.06,-120.66l0 -853.28zm-479.78 695.26c-34.47,97.68 -94.8,158.02 -160.89,158.02 -94.8,0 -158,-137.9 -158,-316.03 0,-307.41 186.74,-339.01 318.89,-425.2l0 583.21zm1246.89 -1071.62c0,-74.7 -48.85,-120.66 -120.66,-120.66l-451.06 0 0 28.72c45.97,0 89.07,60.34 89.07,120.66l0 1200.91c0,60.32 -43.1,120.66 -89.07,120.66l0 31.6 660.78 0 0 -31.6c-43.09,0 -89.05,-60.34 -89.05,-120.66l0 -962.45c0,-94.8 89.05,-215.47 203.98,-215.47 120.66,0 137.9,137.9 137.9,244.2l0 933.72c0,60.32 -45.97,120.66 -89.07,120.66l0 31.6 660.79 0 0 -31.6c-45.96,0 -91.94,-60.34 -91.94,-120.66l0 -982.56c0,-272.94 -126.42,-399.34 -367.74,-399.34 -206.85,0 -359.12,94.8 -453.92,235.58l0 -83.31zm979.68 -120.66l-43.09 0 0 89.06 178.13 0 0 1042.88c0,272.94 129.28,399.34 387.84,399.34 270.07,0 382.11,-140.78 430.94,-321.77l-22.98 -17.24c-31.61,80.44 -100.57,135.03 -181,135.03 -117.79,0 -135.03,-109.18 -135.03,-212.6l0 -1025.64 238.45 0 0 -89.06 -238.45 0 0 -491.28 -89.07 0c-66.08,298.79 -301.67,491.28 -525.76,491.28z"/>
   <path class="fil0" d="M7388.18 1252.75c0,-74.7 -48.84,-120.67 -120.67,-120.67l-451.06 0 0 28.73c45.96,0 89.05,60.34 89.05,120.67l0 1200.91c0,60.33 -43.1,120.67 -89.05,120.67l0 31.6 660.78 0 0 -31.6c-43.1,0 -89.05,-60.34 -89.05,-120.67l0 -1229.64z"/>
   <path class="fil1" d="M8758.57 2143.38c0,-474.03 -769.95,-428.07 -769.95,-761.34 0,-112.04 83.31,-189.62 178.11,-189.62 215.48,0 215.48,433.82 456.81,468.3l37.35 -459.67c-160.89,-43.1 -258.57,-100.55 -442.44,-100.55 -376.36,0 -611.94,244.2 -611.94,508.51 0,474.04 764.21,468.3 764.21,778.58 0,106.3 -91.94,186.74 -198.24,186.74 -249.94,0 -249.94,-436.68 -491.27,-468.28l-37.35 459.67c160.87,40.23 287.29,97.68 471.15,97.68 379.25,0 643.55,-241.33 643.55,-520.01z"/>
   <path class="fil2" d="M7145.69 487.29c156.48,0 283.34,126.85 283.34,283.33 0,156.48 -126.86,283.34 -283.34,283.34 -156.48,0 -283.33,-126.86 -283.33,-283.34 0,-156.48 126.85,-283.33 283.33,-283.33z"/>
  </g>
 </g>
</svg>
